<svg width="1920" height="1080" xmlns="http://www.w3.org/2000/svg">
  <!-- 背景渐变 -->
  <defs>
    <linearGradient id="bg-gradient" x1="0%" y1="0%" x2="100%" y2="100%">
      <stop offset="0%" stop-color="#1a4a2e" />
      <stop offset="100%" stop-color="#0d2b1a" />
    </linearGradient>
    
    <!-- 扑克牌花色符号 -->
    <symbol id="spade" viewBox="0 0 100 100">
      <path d="M50 0 L75 35 A30 30 0 1 1 25 35 Z M40 70 L60 70 L55 100 L45 100 Z" fill="#fff" />
    </symbol>
    
    <symbol id="heart" viewBox="0 0 100 100">
      <path d="M50 100 C0 60 0 0 50 0 C100 0 100 60 50 100 Z" fill="#fff" />
    </symbol>
    
    <symbol id="diamond" viewBox="0 0 100 100">
      <path d="M50 0 L100 50 L50 100 L0 50 Z" fill="#fff" />
    </symbol>
    
    <symbol id="club" viewBox="0 0 100 100">
      <path d="M50 0 A25 25 0 1 1 25 40 A25 25 0 1 1 75 40 A25 25 0 1 1 50 0 Z M40 70 L60 70 L55 100 L45 100 Z" fill="#fff" />
    </symbol>
    
    <!-- 麻将牌符号 -->
    <symbol id="mahjong" viewBox="0 0 100 120">
      <rect x="10" y="10" width="80" height="100" rx="5" fill="#fff" />
      <rect x="20" y="20" width="60" height="80" rx="2" fill="#eee" stroke="#333" stroke-width="1" />
      <circle cx="35" cy="40" r="8" fill="#333" />
      <circle cx="65" cy="40" r="8" fill="#333" />
      <circle cx="50" cy="60" r="8" fill="#333" />
      <circle cx="35" cy="80" r="8" fill="#333" />
      <circle cx="65" cy="80" r="8" fill="#333" />
    </symbol>
  </defs>
  
  <!-- 主背景 -->
  <rect width="100%" height="100%" fill="url(#bg-gradient)" />
  
  <!-- 装饰元素 - 扑克牌花色和麻将牌 -->
  <g opacity="0.1">
    <!-- 扑克牌花色 -->
    <use href="#spade" x="100" y="100" width="100" height="100" />
    <use href="#heart" x="300" y="200" width="120" height="120" />
    <use href="#diamond" x="600" y="150" width="80" height="80" />
    <use href="#club" x="900" y="300" width="150" height="150" />
    <use href="#spade" x="1200" y="100" width="120" height="120" />
    <use href="#heart" x="1500" y="250" width="100" height="100" />
    <use href="#diamond" x="1700" y="400" width="130" height="130" />
    
    <use href="#spade" x="200" y="500" width="130" height="130" />
    <use href="#heart" x="500" y="600" width="100" height="100" />
    <use href="#diamond" x="800" y="550" width="120" height="120" />
    <use href="#club" x="1100" y="650" width="90" height="90" />
    <use href="#spade" x="1400" y="700" width="110" height="110" />
    <use href="#heart" x="1700" y="800" width="140" height="140" />
    
    <!-- 麻将牌 -->
    <use href="#mahjong" x="150" y="300" width="80" height="100" transform="rotate(15)" />
    <use href="#mahjong" x="450" y="400" width="80" height="100" transform="rotate(-10)" />
    <use href="#mahjong" x="750" y="200" width="80" height="100" transform="rotate(25)" />
    <use href="#mahjong" x="1050" y="450" width="80" height="100" transform="rotate(-20)" />
    <use href="#mahjong" x="1350" y="350" width="80" height="100" transform="rotate(5)" />
    <use href="#mahjong" x="1650" y="550" width="80" height="100" transform="rotate(-15)" />
    
    <use href="#mahjong" x="250" y="700" width="80" height="100" transform="rotate(-5)" />
    <use href="#mahjong" x="550" y="800" width="80" height="100" transform="rotate(10)" />
    <use href="#mahjong" x="850" y="750" width="80" height="100" transform="rotate(-25)" />
    <use href="#mahjong" x="1150" y="850" width="80" height="100" transform="rotate(20)" />
    <use href="#mahjong" x="1450" y="900" width="80" height="100" transform="rotate(-10)" />
  </g>
</svg>